<svg xmlns="http://www.w3.org/2000/svg" width="64" height="64" viewBox="0 0 64 64" role="img">
  <title>Gluten</title>
  <defs>
    <clipPath id="clipCircle"><circle cx="32" cy="32" r="28"/></clipPath>
  </defs>
  <circle cx="32" cy="32" r="30" fill="white" stroke="#B5651D" stroke-width="4"/>
  <g clip-path="url(#clipCircle)">
    <rect x="14" y="14" width="36" height="36" rx="6" ry="6" fill="#8C5E3C22"/>
    <path d="M32 18 L32 46" stroke="#5C3A1A" stroke-width="2" />
<ellipse cx="26" cy="20" rx="3" ry="2.2" fill="#5C3A1A"/>
<ellipse cx="38" cy="22" rx="3" ry="2.2" fill="#5C3A1A"/>
<ellipse cx="27" cy="24" rx="3" ry="2.2" fill="#5C3A1A"/>
<ellipse cx="37" cy="26" rx="3" ry="2.2" fill="#5C3A1A"/>
<ellipse cx="28" cy="28" rx="3" ry="2.2" fill="#5C3A1A"/>
<ellipse cx="36" cy="30" rx="3" ry="2.2" fill="#5C3A1A"/>
<ellipse cx="26" cy="32" rx="3" ry="2.2" fill="#5C3A1A"/>
<ellipse cx="38" cy="34" rx="3" ry="2.2" fill="#5C3A1A"/>
<ellipse cx="27" cy="36" rx="3" ry="2.2" fill="#5C3A1A"/>
<ellipse cx="37" cy="38" rx="3" ry="2.2" fill="#5C3A1A"/>
<ellipse cx="28" cy="40" rx="3" ry="2.2" fill="#5C3A1A"/>
<ellipse cx="36" cy="42" rx="3" ry="2.2" fill="#5C3A1A"/>
<ellipse cx="26" cy="44" rx="3" ry="2.2" fill="#5C3A1A"/>
<ellipse cx="38" cy="46" rx="3" ry="2.2" fill="#5C3A1A"/>
  </g>
</svg>